<?xml version="1.0" standalone="no"?>
<!DOCTYPE svg PUBLIC "-//W3C//DTD SVG 20010904//EN"
 "http://www.w3.org/TR/2001/REC-SVG-20010904/DTD/svg10.dtd">
<svg version="1.0" xmlns="http://www.w3.org/2000/svg"
 width="200.000000pt" height="200.000000pt" viewBox="0 0 200.000000 200.000000"
 preserveAspectRatio="xMidYMid meet">

<g transform="translate(0.000000,200.000000) scale(0.100000,-0.100000)"
fill="#000000" stroke="none">
<path d="M880 1810 c-6 -11 -7 -20 -3 -20 4 0 -22 -29 -57 -65 l-64 -65 74
-75 74 -75 66 0 c36 0 71 -5 77 -11 28 -28 78 25 53 56 -14 17 -56 20 -65 5
-3 -5 -32 -10 -63 -10 -56 0 -59 1 -110 53 l-52 53 48 47 c26 26 55 47 64 47
10 0 22 9 28 20 15 28 -4 60 -35 60 -14 0 -29 -8 -35 -20z m45 -30 c-5 -8 -11
-8 -17 -2 -6 6 -7 16 -3 22 5 8 11 8 17 2 6 -6 7 -16 3 -22z m155 -245 c0 -8
-7 -15 -15 -15 -16 0 -20 12 -8 23 11 12 23 8 23 -8z"/>
<path d="M1092 1818 c-6 -6 -12 -19 -12 -28 0 -20 -44 -63 -67 -66 -24 -4 -47
-30 -40 -48 3 -8 15 -20 26 -26 17 -8 24 -7 41 10 11 11 18 24 16 29 -7 11 44
58 68 63 10 1 24 11 30 21 22 35 -32 75 -62 45z m43 -17 c7 -12 -12 -24 -25
-16 -11 7 -4 25 10 25 5 0 11 -4 15 -9z m-105 -116 c0 -8 -7 -15 -15 -15 -8 0
-15 7 -15 15 0 8 7 15 15 15 8 0 15 -7 15 -15z"/>
<path d="M592 1728 c-15 -15 -16 -54 -2 -63 6 -3 10 -27 10 -53 0 -47 1 -49
108 -155 l107 -107 87 0 c48 0 90 -4 93 -10 11 -18 54 -11 65 10 17 32 -5 64
-38 55 -15 -4 -65 -10 -111 -12 l-84 -5 -94 94 c-91 91 -93 94 -93 140 0 26 5
50 10 53 15 9 12 31 -6 49 -19 19 -36 20 -52 4z m38 -34 c0 -17 -22 -14 -28 4
-2 7 3 12 12 12 9 0 16 -7 16 -16z m405 -334 c-5 -8 -11 -8 -17 -2 -6 6 -7 16
-3 22 5 8 11 8 17 2 6 -6 7 -16 3 -22z"/>
<path d="M1206 1718 c-14 -20 -14 -25 -1 -45 12 -17 15 -57 15 -179 l0 -157
-62 -58 -63 -58 -120 -1 -120 0 -108 -108 -107 -107 0 -252 c0 -157 -4 -254
-10 -258 -17 -11 -11 -54 9 -65 39 -20 73 19 52 59 -7 12 -11 111 -11 263 l0
243 98 98 97 97 119 0 118 0 69 61 69 61 0 172 c1 134 4 175 15 190 19 25 19
31 -1 50 -21 22 -40 20 -58 -6z m44 -24 c0 -9 -5 -14 -12 -12 -18 6 -21 28 -4
28 9 0 16 -7 16 -16z m-580 -1229 c0 -8 -4 -15 -9 -15 -13 0 -22 16 -14 24 11
11 23 6 23 -9z"/>
<path d="M432 1644 c-26 -18 -28 -37 -7 -54 11 -9 15 -35 15 -104 l0 -92 40
-39 40 -39 0 -173 c0 -141 -3 -178 -16 -198 -20 -31 -4 -65 31 -65 35 0 51 34
31 65 -13 20 -16 58 -16 208 l0 183 -40 39 -40 39 0 82 c0 46 5 86 10 89 17
10 11 54 -8 64 -14 7 -25 6 -40 -5z m38 -29 c0 -8 -7 -15 -15 -15 -8 0 -15 7
-15 15 0 8 7 15 15 15 8 0 15 -7 15 -15z m75 -705 c-5 -8 -11 -8 -17 -2 -6 6
-7 16 -3 22 5 8 11 8 17 2 6 -6 7 -16 3 -22z"/>
<path d="M1468 1619 c-10 -5 -18 -18 -18 -28 0 -9 -16 -32 -35 -51 -34 -33
-35 -35 -35 -117 l0 -84 -46 -50 c-27 -28 -60 -53 -78 -57 -39 -10 -49 -54
-17 -72 26 -13 61 3 61 28 0 10 25 42 55 72 l55 54 0 86 c0 84 1 87 33 118 18
18 40 32 48 32 18 0 39 19 39 36 0 13 -27 44 -38 44 -4 0 -15 -5 -24 -11z m32
-34 c0 -8 -4 -15 -9 -15 -13 0 -22 16 -14 24 11 11 23 6 23 -9z m-225 -384 c7
-12 -12 -24 -25 -16 -11 7 -4 25 10 25 5 0 11 -4 15 -9z"/>
<path d="M262 1518 c-15 -15 -16 -44 -2 -53 6 -3 10 -19 10 -34 0 -18 12 -38
35 -61 19 -19 35 -41 35 -51 0 -43 72 -53 78 -11 4 27 -14 52 -36 52 -22 0
-72 50 -72 72 0 10 6 27 12 38 24 37 -29 79 -60 48z m43 -17 c7 -12 -12 -24
-25 -16 -11 7 -4 25 10 25 5 0 11 -4 15 -9z m93 -183 c-6 -18 -28 -21 -28 -4
0 9 7 16 16 16 9 0 14 -5 12 -12z"/>
<path d="M1617 1423 c-4 -3 -7 -14 -7 -22 0 -9 -69 -85 -153 -169 l-152 -152
-190 0 -190 0 -87 -87 -88 -88 0 -327 c0 -244 -3 -333 -12 -348 -17 -26 0 -55
32 -55 32 0 49 29 32 55 -9 15 -12 103 -12 343 l0 323 73 72 72 72 195 0 194
0 155 154 c86 85 166 157 178 160 27 8 36 32 23 57 -10 18 -50 26 -63 12z m43
-34 c0 -5 -7 -9 -15 -9 -15 0 -20 12 -9 23 8 8 24 -1 24 -14z m-878 -1191
c-15 -15 -26 -4 -18 18 5 13 9 15 18 6 9 -9 9 -15 0 -24z"/>
<path d="M614 1406 c-13 -34 3 -56 49 -70 12 -4 17 -16 17 -44 0 -41 -11 -57
-45 -64 -26 -4 -28 -56 -3 -71 20 -13 58 15 58 43 0 10 7 23 15 30 17 14 21
105 5 115 -6 4 -17 22 -25 41 -11 26 -20 34 -40 34 -14 0 -28 -6 -31 -14z m46
-27 c0 -5 -7 -9 -15 -9 -15 0 -20 12 -9 23 8 8 24 -1 24 -14z m0 -184 c0 -8
-7 -15 -15 -15 -16 0 -20 12 -8 23 11 12 23 8 23 -8z"/>
<path d="M213 1333 c-7 -2 -13 -18 -13 -34 0 -23 5 -30 28 -35 15 -4 57 -36
95 -72 l67 -66 0 -126 0 -126 65 -64 65 -64 0 -223 c0 -161 -3 -229 -12 -243
-18 -28 1 -55 38 -55 23 0 30 5 32 24 2 13 -1 28 -7 34 -7 7 -11 89 -11 242
l0 231 -65 64 -65 64 0 126 0 126 -71 69 c-39 39 -77 85 -84 103 -13 31 -31
38 -62 25z m32 -43 c-5 -8 -11 -8 -17 -2 -6 6 -7 16 -3 22 5 8 11 8 17 2 6 -6
7 -16 3 -22z m313 -1032 c-6 -18 -28 -21 -28 -4 0 9 7 16 16 16 9 0 14 -5 12
-12z"/>
<path d="M1736 1274 c-18 -18 -21 -40 -6 -49 6 -3 10 -36 10 -73 0 -68 0 -68
-48 -115 -26 -26 -55 -47 -64 -47 -22 0 -40 -25 -36 -52 6 -42 78 -32 78 11 0
9 25 41 55 71 l55 54 0 68 c0 37 5 70 10 73 14 9 13 48 -2 63 -16 16 -33 15
-52 -4z m42 -26 c-6 -18 -28 -21 -28 -4 0 9 7 16 16 16 9 0 14 -5 12 -12z
m-138 -304 c0 -9 -5 -14 -12 -12 -18 6 -21 28 -4 28 9 0 16 -7 16 -16z"/>
<path d="M1588 1169 c-10 -5 -18 -18 -18 -27 0 -10 -42 -59 -93 -110 l-92 -92
-161 0 c-105 0 -164 4 -171 11 -7 7 -23 9 -38 5 -22 -6 -26 -11 -23 -39 2 -25
8 -33 27 -35 13 -2 28 1 34 7 7 7 72 11 182 11 l170 0 100 100 c54 54 108 100
119 102 28 4 34 47 10 65 -21 15 -24 15 -46 2z m34 -34 c0 -5 -5 -11 -11 -13
-6 -2 -11 4 -11 13 0 9 5 15 11 13 6 -2 11 -8 11 -13z m-587 -225 c-5 -8 -11
-8 -17 -2 -6 6 -7 16 -3 22 5 8 11 8 17 2 6 -6 7 -16 3 -22z"/>
<path d="M218 1129 c-24 -14 -23 -56 2 -69 11 -6 20 -8 20 -4 0 3 7 1 15 -6
18 -15 20 -82 3 -110 -17 -26 0 -55 32 -55 32 0 49 29 32 55 -6 11 -12 39 -12
64 0 26 -6 48 -15 56 -8 7 -15 20 -15 30 0 9 -8 24 -18 33 -21 20 -21 20 -44
6z m32 -35 c0 -17 -22 -14 -28 4 -2 7 3 12 12 12 9 0 16 -7 16 -16z m50 -180
c0 -16 -16 -19 -25 -4 -8 13 4 32 16 25 5 -4 9 -13 9 -21z"/>
</g>
</svg>
